# xmcd CD database file
#
# Track frame offsets:
#	150
#	22119
#	47501
#	70236
#	98659
#	127691
#	158298
#	186458
#	210375
#	239936
#	264240
#	287996
#	308866
#
# Disc length: 4451 seconds
#
# Revision: 0
# Processed by: cddbd v1.5.2PL0 Copyright (c) Steve Scherf et al.
# Submitted via: CDex 1.51
#
DISCID=b211610d
DTITLE=Varios - JazzFest Barquisimeto 2009
DYEAR=2009
DGENRE=Jazz
TTITLE0=Cumbianeo_Claudia Gomez
TTITLE1=Nuevos Dias_Claudia Gomez
TTITLE2=Rendezvous_Caribbean Jazz Project
TTITLE3=Naima_Caribbean Jazz Project
TTITLE4=Caraballeda_Leo Blanco
TTITLE5=Serendipity_Leo Blanco
TTITLE6=Son con Pajarillo_Cesar Orozco
TTITLE7=Aquel Zuliano_Cesar Orozco
TTITLE8=Chorinho Praele_Alexis Cardenas
TTITLE9=Otro Amanecer_Carlos Rodriguez
TTITLE10=Puedo_Carlos Rodriguez
TTITLE11=Casa de Maribondo_Fabio-Celso-Paulo
TTITLE12=Flor_Fabio-Celso-Paulo
EXTD=YEAR: 2009
EXTT0=
EXTT1=
EXTT2=
EXTT3=
EXTT4=
EXTT5=
EXTT6=
EXTT7=
EXTT8=
EXTT9=
EXTT10=
EXTT11=
EXTT12=
PLAYORDER=
